# xmcd
#
# Track frame offsets: 
#        150
#        12361
#        17791
#        29546
#        36512
#        46918
#        56600
#        67499
#        81464
#        121923
#        136669
#        148562
#
# Disc length: 2182 seconds
#
# Revision: 4
# Processed by: cddbd v1.5.2PL0 Copyright (c) Steve Scherf et al.
# Submitted via: ExactAudioCopyFreeDBPlugin 1.0
#
DISCID=ad08840c
DTITLE=Alain Bashung - L'Homme A Tête De Chou
DYEAR=2011
DGENRE=Rock
TTITLE0=L'Homme A Tête De Chou
TTITLE1=Chez Max Coiffeur Pour Hommes
TTITLE2=Marilou Reggae
TTITLE3=Transit A Marilou
TTITLE4=Flash Forward
TTITLE5=Aéroplanes
TTITLE6=Premiers Symptômes
TTITLE7=Ma Lou Marilou
TTITLE8=Variations Sur Marilou
TTITLE9=Meurtre A l'Extincteur
TTITLE10=Marilou Sous La Neige
TTITLE11=Lunatic Asylum
EXTD=YEAR: 2011
EXTT0=
EXTT1=
EXTT2=
EXTT3=
EXTT4=
EXTT5=
EXTT6=
EXTT7=
EXTT8=
EXTT9=
EXTT10=
EXTT11=
PLAYORDER=
